# Blender 3.2.1
# www.blender.org
mtllib mysteriousShard.mtl
o Cube
v 0.755051 0.877526 -0.877525
v 0.877526 -0.755051 0.877526
v -0.877526 -0.755051 -0.877526
v -0.877525 0.877526 0.755051
v 0.877526 0.877526 -0.755051
v -0.755051 0.877526 0.877525
v -0.755051 -0.877526 -0.877525
v 0.877526 -0.877526 0.755051
v 0.877526 0.755051 -0.877526
v -0.877526 0.755051 0.877526
v 0.755051 -0.877526 0.877526
v -0.877525 -0.877526 -0.755051
v -1.096907 1.096907 0.943814
v -1.096907 0.943814 1.096907
v 1.096907 -1.096907 0.943814
v 0.943814 -1.096907 1.096907
v 0.943814 1.096907 -1.096907
v -1.096907 -0.943814 -1.096907
v -0.943814 1.096907 1.096907
v 1.096907 1.096907 -0.943814
v 1.096907 -0.943814 1.096907
v -0.943814 -1.096907 -1.096907
v -1.096907 -1.096907 -0.943814
v 1.096907 0.943814 -1.096907
v 0.177701 0.300175 -0.300175
v 0.300176 0.177701 -0.300175
v 0.300176 0.300175 -0.177700
v 0.300175 -0.300176 0.177701
v 0.177701 -0.300176 0.300175
v 0.300175 -0.177701 0.300175
v -0.300175 0.300175 0.177701
v -0.300175 0.177700 0.300175
v -0.177701 0.300175 0.300175
v -0.300175 -0.177700 -0.300175
v -0.177701 -0.300175 -0.300175
v -0.300175 -0.300175 -0.177701
v -0.061405 0.061405 -0.061405
v 0.061405 -0.061405 -0.061405
v -0.061405 -0.061405 0.061405
v 0.061405 0.061404 0.061405
vn 1.0000 -0.0000 -0.0000
vn -0.8165 0.4082 0.4082
vn 0.0982 0.7037 -0.7037
vn 0.0982 -0.7037 0.7037
vn 0.7037 0.0982 -0.7037
vn 0.7037 0.7037 -0.0982
vn -0.7037 -0.0982 -0.7037
vn -0.7037 0.0982 0.7037
vn -0.0982 -0.7037 -0.7037
vn 0.7037 -0.0982 0.7037
vn -0.7037 -0.7037 -0.0982
vn -0.7037 0.7037 0.0982
vn -0.5773 0.5774 0.5774
vn 0.5774 -0.5774 0.5774
vn -0.0000 -0.0000 -1.0000
vn -1.0000 -0.0000 -0.0000
vn -0.0000 -1.0000 -0.0000
vn -0.5773 -0.5774 0.5774
vn -0.5773 -0.5774 -0.5774
vn -0.0000 1.0000 -0.0000
vn -0.0000 -0.0000 1.0000
vn -0.0982 0.7037 0.7037
vn 0.7037 -0.7037 0.0982
vn 0.8165 0.4082 -0.4082
vn 0.4082 0.8165 -0.4082
vn -0.4082 0.8165 0.4082
vn -0.4081 0.8167 0.4081
vn 0.8165 -0.4082 0.4082
vn -0.4082 -0.4082 -0.8165
vn 0.8167 0.4081 -0.4081
vn -0.4082 0.4082 0.8165
vn -0.4082 -0.8165 -0.4082
vn 0.4081 0.8167 -0.4081
vn 0.4082 -0.4082 0.8165
vn -0.8165 -0.4082 -0.4082
vn -0.8167 0.4081 0.4081
vn 0.4082 -0.8165 0.4082
vn 0.4082 0.4082 -0.8165
vn 0.5773 0.5773 0.5774
vn 0.4081 -0.8167 0.4081
vn 0.4081 0.4081 -0.8167
vn -0.5773 0.5774 -0.5774
vn -0.4081 0.4081 0.8167
vn -0.4081 -0.8167 -0.4081
vn 0.5773 -0.5774 -0.5774
vn 0.4081 -0.4081 0.8167
vn -0.8167 -0.4081 -0.4081
vn -0.5774 -0.5774 0.5773
vn 0.8167 -0.4081 0.4081
vn -0.4081 -0.4081 -0.8167
vn -0.5774 -0.5774 -0.5774
vn 0.5774 0.5774 -0.5774
vn -0.5774 0.5774 0.5774
vt 0.000000 0.000000
vt 0.000000 0.000000
vt 0.000000 0.000000
vt 0.000000 0.000000
vt 0.000000 0.000000
vt 0.000000 0.000000
vt 0.000000 0.000000
vt 0.000000 0.000000
vt 0.000000 0.000000
vt 0.000000 0.000000
vt 0.000000 0.000000
vt 0.000000 0.000000
vt 0.000000 0.000000
vt 0.000000 0.000000
vt 0.000000 0.000000
vt 0.000000 0.000000
vt 0.000000 0.000000
vt 0.000000 0.000000
vt 0.000000 0.000000
vt 0.000000 0.000000
vt 0.000000 0.000000
vt 0.000000 0.000000
vt 0.000000 0.000000
vt 0.000000 0.000000
vt 0.000000 0.000000
vt 0.000000 0.000000
vt 0.000000 0.000000
vt 0.000000 0.000000
vt 0.000000 0.000000
vt 0.000000 0.000000
vt 0.000000 0.000000
vt 0.000000 0.000000
vt 0.000000 0.000000
vt 0.000000 0.000000
vt 0.000000 0.000000
vt 0.000000 0.000000
vt 0.000000 0.000000
vt 0.000000 0.000000
vt 0.000000 0.000000
vt 0.000000 0.000000
s 0
usemtl Material
f 3/3/1 4/4/1 10/10/1 12/12/1
f 3/3/2 12/12/2 36/36/2 34/34/2
f 4/4/3 3/3/3 18/18/3 13/13/3
f 12/12/4 10/10/4 14/14/4 23/23/4
f 7/7/5 8/8/5 15/15/5 22/22/5
f 2/2/6 6/6/6 19/19/6 21/21/6
f 1/1/7 4/4/7 13/13/7 17/17/7
f 11/11/8 12/12/8 23/23/8 16/16/8
f 8/8/9 9/9/9 24/24/9 15/15/9
f 6/6/10 5/5/10 20/20/10 19/19/10
f 10/10/11 11/11/11 16/16/11 14/14/11
f 3/3/12 1/1/12 17/17/12 18/18/12
f 19/19/13 13/13/13 14/14/13
f 21/21/14 16/16/14 15/15/14
f 18/18/15 17/17/15 24/24/15 22/22/15
f 13/13/16 18/18/16 23/23/16 14/14/16
f 20/20/1 21/21/1 15/15/1 24/24/1
f 16/16/17 23/23/17 22/22/17 15/15/17
f 17/17/18 24/24/18 20/20/18
f 18/18/19 22/22/19 23/23/19
f 13/13/20 19/19/20 20/20/20 17/17/20
f 19/19/21 14/14/21 16/16/21 21/21/21
f 5/5/22 2/2/22 21/21/22 20/20/22
f 9/9/23 7/7/23 22/22/23 24/24/23
f 1/1/21 3/3/21 7/7/21 9/9/21
f 8/8/20 7/7/20 12/12/20 11/11/20
f 2/2/24 8/8/24 28/28/24 30/30/24
f 5/5/16 9/9/16 8/8/16 2/2/16
f 2/2/15 11/11/15 10/10/15 6/6/15
f 4/4/25 6/6/25 33/33/25 31/31/25
f 4/4/17 1/1/17 5/5/17 6/6/17
f 5/5/26 1/1/26 25/25/26 27/27/26
f 27/27/27 25/25/27 37/37/27 40/40/27
f 9/9/28 5/5/28 27/27/28 26/26/28
f 1/1/29 9/9/29 26/26/29 25/25/29
f 30/30/30 28/28/30 38/38/30 40/40/30
f 11/11/31 2/2/31 30/30/31 29/29/31
f 8/8/32 11/11/32 29/29/32 28/28/32
f 31/31/33 33/33/33 40/40/33 37/37/33
f 6/6/34 10/10/34 32/32/34 33/33/34
f 10/10/35 4/4/35 31/31/35 32/32/35
f 34/34/36 36/36/36 39/39/36 37/37/36
f 12/12/37 7/7/37 35/35/37 36/36/37
f 7/7/38 3/3/38 34/34/38 35/35/38
f 38/38/39 37/37/39 39/39/39
f 36/36/40 35/35/40 38/38/40 39/39/40
f 35/35/41 34/34/41 37/37/41 38/38/41
f 39/39/42 40/40/42 38/38/42
f 29/29/43 30/30/43 40/40/43 39/39/43
f 28/28/44 29/29/44 39/39/44 38/38/44
f 39/39/45 37/37/45 40/40/45
f 33/33/46 32/32/46 39/39/46 40/40/46
f 32/32/47 31/31/47 37/37/47 39/39/47
f 38/38/48 40/40/48 37/37/48
f 26/26/49 27/27/49 40/40/49 38/38/49
f 25/25/50 26/26/50 38/38/50 37/37/50
usemtl Material.001
f 3/3/14 1/1/14 4/4/14
f 2/2/51 6/6/51 5/5/51
f 12/12/52 10/10/52 11/11/52
f 7/7/53 8/8/53 9/9/53
